# Blender v3.0.0 OBJ File: 'star.blend'
# www.blender.org
mtllib star.mtl
o Sphere
v 0.038256 -0.116675 -0.362781
v -0.038256 -0.116675 -0.362781
v -0.205445 -0.000000 0.000000
v 0.038802 -0.699102 -0.511132
v -0.038802 -0.699102 -0.511132
v 0.038256 -0.381081 -0.001141
v -0.038256 -0.381081 -0.001141
v 0.038802 -0.702150 0.506937
v -0.038802 -0.702150 0.506937
v 0.038256 -0.118845 0.362077
v -0.038256 -0.118845 0.362077
v 0.205445 -0.000000 0.000000
v 0.038802 0.265150 0.824437
v -0.038802 0.265150 0.824437
v 0.038256 0.307630 0.224917
v -0.038256 0.307630 0.224917
v 0.038802 0.866022 0.002593
v -0.038802 0.866022 0.002593
v 0.038256 0.308971 -0.223070
v -0.038256 0.308971 -0.223070
v 0.038802 0.270081 -0.822834
v -0.038802 0.270081 -0.822834
vt 0.650000 0.000000
vt 0.700000 0.333333
vt 0.600000 0.333333
vt 0.700000 0.666667
vt 0.600000 0.666667
vt 0.650000 1.000000
vt 0.550000 0.000000
vt 0.500000 0.333333
vt 0.500000 0.666667
vt 0.550000 1.000000
vt 0.450000 0.000000
vt 0.400000 0.333333
vt 0.400000 0.666667
vt 0.450000 1.000000
vt 0.350000 0.000000
vt 0.300000 0.333333
vt 0.300000 0.666667
vt 0.350000 1.000000
vt 0.250000 0.000000
vt 0.200000 0.333333
vt 0.200000 0.666667
vt 0.250000 1.000000
vt 0.150000 0.000000
vt 0.100000 0.333333
vt 0.100000 0.666667
vt 0.150000 1.000000
vt 0.050000 0.000000
vt 0.000000 0.333333
vt 0.000000 0.666667
vt 0.050000 1.000000
vt 0.950000 0.000000
vt 1.000000 0.333333
vt 0.900000 0.333333
vt 1.000000 0.666667
vt 0.900000 0.666667
vt 0.950000 1.000000
vt 0.850000 0.000000
vt 0.800000 0.333333
vt 0.800000 0.666667
vt 0.850000 1.000000
vt 0.750000 0.000000
vt 0.750000 1.000000
vn -0.8877 -0.3529 -0.2956
vn -0.0000 -0.7654 -0.6435
vn 0.8877 -0.3529 -0.2956
vn -0.8877 0.1144 -0.4459
vn -0.0000 0.2468 -0.9691
vn 0.8877 0.1144 -0.4459
vn -0.8877 -0.3902 0.2443
vn 0.0000 -0.8485 0.5291
vn 0.8877 -0.3902 0.2443
vn -0.8877 -0.3887 -0.2466
vn -0.0000 -0.8454 -0.5342
vn 0.8877 -0.3887 -0.2466
vn -0.8877 0.1117 0.4466
vn 0.0000 0.2410 0.9705
vn 0.8877 0.1117 0.4466
vn -0.8877 -0.3547 0.2935
vn -0.0000 -0.7693 0.6389
vn 0.8877 -0.3547 0.2935
vn -0.8877 0.4593 0.0317
vn 0.0000 0.9975 0.0707
vn 0.8877 0.4593 0.0317
vn -0.8877 0.1695 0.4280
vn -0.0000 0.3699 0.9291
vn 0.8877 0.1695 0.4280
vn -0.8877 0.1721 -0.4270
vn 0.0000 0.3755 -0.9268
vn 0.8877 0.1721 -0.4270
vn -0.8877 0.4594 -0.0290
vn -0.0000 0.9979 -0.0647
vn 0.8877 0.4594 -0.0290
usemtl Material.001
s off
f 3/1/1 22/2/1 2/3/1
f 22/2/2 21/4/2 1/5/2 2/3/2
f 21/4/3 12/6/3 1/5/3
f 3/7/4 2/3/4 5/8/4
f 2/3/5 1/5/5 4/9/5 5/8/5
f 1/5/6 12/10/6 4/9/6
f 3/11/7 5/8/7 7/12/7
f 5/8/8 4/9/8 6/13/8 7/12/8
f 4/9/9 12/14/9 6/13/9
f 3/15/10 7/12/10 9/16/10
f 7/12/11 6/13/11 8/17/11 9/16/11
f 6/13/12 12/18/12 8/17/12
f 3/19/13 9/16/13 11/20/13
f 9/16/14 8/17/14 10/21/14 11/20/14
f 8/17/15 12/22/15 10/21/15
f 3/23/16 11/20/16 14/24/16
f 11/20/17 10/21/17 13/25/17 14/24/17
f 10/21/18 12/26/18 13/25/18
f 3/27/19 14/24/19 16/28/19
f 14/24/20 13/25/20 15/29/20 16/28/20
f 13/25/21 12/30/21 15/29/21
f 3/31/22 16/32/22 18/33/22
f 16/32/23 15/34/23 17/35/23 18/33/23
f 15/34/24 12/36/24 17/35/24
f 3/37/25 18/33/25 20/38/25
f 18/33/26 17/35/26 19/39/26 20/38/26
f 17/35/27 12/40/27 19/39/27
f 3/41/28 20/38/28 22/2/28
f 20/38/29 19/39/29 21/4/29 22/2/29
f 19/39/30 12/42/30 21/4/30
